<?xml version="1.0" encoding="utf-8"?>
<!-- Generator: Adobe Illustrator 17.1.0, SVG Export Plug-In . SVG Version: 6.00 Build 0)  -->
<!DOCTYPE svg PUBLIC "-//W3C//DTD SVG 1.1//EN" "http://www.w3.org/Graphics/SVG/1.1/DTD/svg11.dtd">
<svg version="1.1" id="图层_1" xmlns="http://www.w3.org/2000/svg" xmlns:xlink="http://www.w3.org/1999/xlink" x="0px" y="0px"
	 viewBox="0 0 255.12 255.12" enable-background="new 0 0 255.12 255.12" xml:space="preserve">
<path fill="#ffffff" d="M223.23,255.12c20.482,0,31.89-11.4,31.89-23.917c0-15.05,0-24.812,0-39.863c0-9.901-11.408-23.917-31.89-23.917
	c-20.483,0-170.858,0-191.34,0C11.407,167.422,0,180.193,0,191.34c0,15.05,0,24.812,0,39.863c0,12.642,11.408,23.917,31.89,23.917
	C52.372,255.12,202.747,255.12,223.23,255.12z M203.352,199.317c6.604,0,11.959,5.354,11.959,11.959
	c0,6.604-5.354,11.959-11.959,11.959c-6.605,0-11.959-5.354-11.959-11.959C191.393,204.672,196.747,199.317,203.352,199.317z"/>
<path fill="#ffffff" d="M58.12,126.12c0,8.219,6.661,14.88,14.88,14.88c4.107,0,7.827-1.667,10.52-4.36l44.04-44.035l44.04,44.04
	c2.693,2.688,6.413,4.355,10.52,4.355c8.219,0,14.88-6.661,14.88-14.88c0-4.107-1.667-7.827-4.36-10.52l-44.035-44.04l44.04-44.035
	C195.333,24.832,197,21.112,197,17c0-8.219-6.661-14.88-14.88-14.88c-4.107,0-7.827,1.667-10.52,4.36l-44.04,44.04L83.52,6.48
	C80.832,3.787,77.107,2.12,73,2.12c-8.219,0-14.88,6.661-14.88,14.88c0,4.107,1.667,7.827,4.36,10.52l44.035,44.04l-44.04,44.04
	C59.786,118.293,58.12,122.013,58.12,126.12z"/>
</svg>
