<?xml version="1.0" encoding="utf-8"?>
<!-- Generator: Adobe Illustrator 17.1.0, SVG Export Plug-In . SVG Version: 6.00 Build 0)  -->
<!DOCTYPE svg PUBLIC "-//W3C//DTD SVG 1.1//EN" "http://www.w3.org/Graphics/SVG/1.1/DTD/svg11.dtd">
<svg version="1.1" id="图层_1" xmlns="http://www.w3.org/2000/svg" xmlns:xlink="http://www.w3.org/1999/xlink" x="0px" y="0px"
	 viewBox="0 0 1024 1024" enable-background="new 0 0 1024 1024" xml:space="preserve">
<path fill-rule="evenodd" clip-rule="evenodd" fill="#ffffff" d="M871.999,959.999c56.522,0,88-32.619,88-61.09
	c0-38.443,0-63.377,0-101.818c0-28.473-31.478-61.092-88-61.092c-56.521,0-663.479,0-720,0s-88,32.619-88,61.092
	c0,38.442,0,63.375,0,101.818c0,23.345,31.479,61.09,88,61.09S815.478,959.999,871.999,959.999z"/>
<path fill-rule="evenodd" clip-rule="evenodd" fill="#ffffff" d="M896,1023.999c82.212,0,128-45.759,128-95.999c0-60.409,0-99.592,0-160.001
	c0-39.74-45.788-96-128-96c-82.213,0-685.788,0-768,0c-82.213,0-128.001,51.258-128.001,96c0,60.409,0,99.591,0,160.001
	c0,50.741,45.788,95.999,128.001,95.999C210.212,1023.999,813.786,1023.999,896,1023.999z M816.213,800.019
	c26.509,0,48,21.491,48,48.002c0,26.509-21.491,48-48,48c-26.51,0-48-21.491-48-48C768.213,821.51,789.702,800.019,816.213,800.019z
	"/>
<path fill-rule="evenodd" clip-rule="evenodd" fill="#ffffff" d="M287.999,224c0,0,0-118.248,0-160.001c0-41.751,24.977-64,64-64s285.925,0,320,0
	c34.075,0,64,29.777,64,64s0,160.001,0,160.001s16.44,0,32,0C822.561,224,832,252.999,832,288c0,35-99.168,129.303-170.158,208.22
	C559.465,610.026,530.55,608.687,512,607.999c-11.452-0.426-47.136-14.756-80.996-46.905
	C371.834,504.913,276.391,407.546,224,351.999c-22.723-24.091-34.663-37.283-33.092-67.604
	c2.358-45.533,30.032-59.562,64.933-59.562C273.702,224.833,287.999,224,287.999,224z"/>
<path fill-rule="evenodd" clip-rule="evenodd" fill="#ffffff" d="M351.999,288c0,0,0-163.433,0-192.001s4.727-32,32-32
	c27.274,0,232.186,0,256,0s32,8.584,32,32s0,192.001,0,192.001h96c1.464-0.625-65.351,80.377-128.915,144.018
	C566.103,505.09,517.678,544,512,544c-10.604,0-145.931-135.447-202.18-198.155C294.531,328.801,255.999,288,255.999,288H351.999z"
	/>
</svg>
