<?xml version="1.0" encoding="utf-8"?>
<!-- Generator: Adobe Illustrator 17.1.0, SVG Export Plug-In . SVG Version: 6.00 Build 0)  -->
<!DOCTYPE svg PUBLIC "-//W3C//DTD SVG 1.1//EN" "http://www.w3.org/Graphics/SVG/1.1/DTD/svg11.dtd">
<svg version="1.1" id="Layer_1" xmlns="http://www.w3.org/2000/svg" xmlns:xlink="http://www.w3.org/1999/xlink" x="0px" y="0px"
	 viewBox="0 0 42 42" enable-background="new 0 0 42 42" xml:space="preserve">
<path fill="#FFFFFF" d="M31.133,7.689l-0.138,0.128L8.35,30.46c-0.267,0.267-0.458,0.512-0.586,0.737
	c-2.184-2.825-3.461-6.423-3.461-10.385c0-9.417,7.093-16.574,16.508-16.574C24.763,4.238,28.32,5.507,31.133,7.689z M11.173,34.475
	c0.202-0.125,0.415-0.307,0.649-0.543L34.464,11.29l0.044-0.043c1.863,2.696,2.94,5.997,2.94,9.628
	c0,9.404-7.168,16.637-16.573,16.637C17.201,37.512,13.867,36.404,11.173,34.475z M0,20.875C0,32.41,9.351,41.75,20.875,41.75
	c11.526,0,20.876-9.34,20.876-20.875S32.401,0,20.876,0S0,9.34,0,20.875z"/>
</svg>
