<?xml version="1.0" encoding="utf-8"?>
<!-- Generator: Adobe Illustrator 17.0.0, SVG Export Plug-In . SVG Version: 6.00 Build 0)  -->
<!DOCTYPE svg PUBLIC "-//W3C//DTD SVG 1.1//EN" "http://www.w3.org/Graphics/SVG/1.1/DTD/svg11.dtd">
<svg version="1.1" id="error" xmlns="http://www.w3.org/2000/svg" xmlns:xlink="http://www.w3.org/1999/xlink" x="0px" y="0px"
	 width="512px" height="512px" viewBox="0 0 512 512" enable-background="new 0 0 512 512" xml:space="preserve">
<path fill="#ffffff" d="M257.022,473.683c-64.653,0-129.306,0.107-193.958-0.128c-8.584-0.031-17.374-0.913-25.701-2.924
	C12.15,464.54-0.396,442.916,6.727,417.933c2.209-7.749,5.552-15.381,9.578-22.375C81.409,282.461,146.631,169.432,212.121,56.559
	c4.769-8.219,10.868-16.193,17.975-22.425c18.023-15.804,39.995-14.613,56.81,2.539c5.76,5.876,10.869,12.692,14.997,19.819
	c65.414,112.917,130.621,225.955,195.874,338.966c5.363,9.287,9.819,18.95,11.028,29.74c2.527,22.553-9.544,40.029-32.125,45.426
	c-8.335,1.992-17.117,2.901-25.701,2.933C386.328,473.79,321.675,473.683,257.022,473.683z M274.924,314.794
	c0.368-2.184,0.703-3.981,0.971-5.787c4.977-33.563,10.095-67.106,14.837-100.702c1.642-11.634,3.53-23.434,3.192-35.098
	c-0.452-15.587-13.901-29.414-28.912-32.203c-17.134-3.183-33.324,4.443-40.979,18.931c-6.082,11.512-4.894,23.369-2.857,35.523
	c5.469,32.641,10.726,65.318,15.933,98.003c1.118,7.017,1.665,14.125,2.492,21.332C251.547,314.794,262.995,314.794,274.924,314.794
	z M257.021,337.66c-20.641-0.015-37.883,17.113-37.94,37.688c-0.056,20.248,16.869,37.083,37.651,37.453
	c20.48,0.364,38.194-16.989,38.189-37.412C294.915,354.851,277.661,337.675,257.021,337.66z"/>
</svg>
